<?xml version="1.0" encoding="UTF-8"?>
<svg id="Layer_2" data-name="Layer 2" xmlns="http://www.w3.org/2000/svg" viewBox="0 0 427.33 101.34">
  <defs>
    <style>
      .cls-1 {
        fill: #04909e;
      }

      .cls-1, .cls-2, .cls-3 {
        stroke-width: 0px;
      }

      .cls-2 {
        opacity: .23;
      }

      .cls-2, .cls-3 {
        fill: #442a1f;
      }
    </style>
  </defs>
  <g id="Layer_1-2" data-name="Layer 1">
    <g>
      <path class="cls-3" d="m41.14,43.82l19.4,1.17c-.91,8.48-4.05,14.98-9.4,19.51-5.36,4.53-11.93,6.79-19.73,6.79-9.39,0-16.97-3.11-22.75-9.32C2.89,55.75,0,47.17,0,36.22S2.74,16.63,8.21,9.98C13.68,3.33,21.31,0,31.11,0,40.26,0,47.3,2.53,52.21,7.6c4.92,5.07,7.69,11.79,8.33,20.16l-19.81,1.06c0-4.63-.89-7.97-2.66-10.03-1.77-2.06-3.86-3.09-6.26-3.09-6.69,0-10.03,6.72-10.03,20.16,0,7.53.87,12.65,2.61,15.35,1.74,2.7,4.18,4.05,7.32,4.05,5.61,0,8.75-3.82,9.42-11.45Z"/>
      <path class="cls-3" d="m100.33,71.28c-9.73,0-17.66-3.23-23.79-9.68-6.13-6.45-9.2-15.08-9.2-25.89s2.93-18.87,8.79-25.61C82,3.37,90.13,0,100.54,0,110.16,0,118.01,3.17,124.07,9.52c6.06,6.35,9.09,14.83,9.09,25.43s-3.06,19.78-9.17,26.4c-6.11,6.62-14,9.93-23.66,9.93Zm-.1-15.71c3.58,0,6.15-1.56,7.73-4.69,1.57-3.12,2.36-8.84,2.36-17.15,0-12.02-3.23-18.04-9.68-18.04-6.96,0-10.44,6.86-10.44,20.57,0,12.87,3.34,19.3,10.03,19.3Z"/>
      <path class="cls-3" d="m182.33,43.82l19.4,1.17c-.91,8.48-4.05,14.98-9.4,19.51-5.36,4.53-11.93,6.79-19.73,6.79-9.39,0-16.97-3.11-22.75-9.32-5.78-6.21-8.66-14.79-8.66-25.74s2.74-19.59,8.21-26.24C154.87,3.33,162.5,0,172.3,0,181.45,0,188.48,2.53,193.4,7.6c4.92,5.07,7.69,11.79,8.33,20.16l-19.81,1.06c0-4.63-.89-7.97-2.66-10.03-1.77-2.06-3.86-3.09-6.26-3.09-6.69,0-10.03,6.72-10.03,20.16,0,7.53.87,12.65,2.61,15.35,1.74,2.7,4.18,4.05,7.32,4.05,5.61,0,8.75-3.82,9.42-11.45Z"/>
      <path class="cls-3" d="m427.33,67.94h-16.91l-18.54-29.9c-2.38-3.83-4.78-8.49-7.2-13.98,1.09,4.36,1.64,8.06,1.64,11.11v32.77h-16.86V.26h19.63l15.77,24.79c3.14,4.92,5.52,9.26,7.14,12.99-1.06-5.78-1.59-11.7-1.59-17.75V.26h16.91v67.68Z"/>
      <path class="cls-1" d="m358.02,1.39L325.13.03c-19.55-.81-36.21,14.53-37.01,34.08l-1.36,32.9-.02.38,33.27,1.37c19.55.81,36.21-14.53,37.01-34.08l1.37-33.27-.38-.02Zm-24.66,23.07l-.89,19.42c-.53,11.54-10.41,20.55-21.95,20.02l-19.42-.89h-.22s.9-19.65.9-19.65c.53-11.54,10.41-20.55,21.95-20.02l19.64.9v.22Z"/>
      <path class="cls-1" d="m206.05,1.4l1.37,33.27c.81,19.55,17.46,34.89,37.01,34.08l33.27-1.37-.02-.38-1.36-32.9C275.53,14.56,258.87-.78,239.32.03l-32.9,1.36-.38.02Zm25.02,22.84l19.64-.9c11.54-.53,21.42,8.48,21.95,20.02l.9,19.64h-.22s-19.42.9-19.42.9c-11.54.53-21.42-8.48-21.95-20.02l-.89-19.42v-.22Z"/>
      <g>
        <path class="cls-2" d="m310.58,88.22c.84-7.71-4.77-14.72-12.49-15.56l-12.98-1.42,24.04,29.96,1.42-12.98Z"/>
        <path class="cls-2" d="m285.11,71.23l-.15-.02-1.44,13.13c-.84,7.71,4.77,14.72,12.49,15.56l13.13,1.44.02-.15-24.04-29.96Z"/>
        <path class="cls-2" d="m287.7,82.72c-.5,4.32,2.62,8.26,6.94,8.75l7.26.84-13.36-16.86-.84,7.26Z"/>
        <path class="cls-2" d="m301.9,92.32h.08s.85-7.33.85-7.33c.5-4.32-2.62-8.26-6.94-8.75l-7.34-.85v.08s13.35,16.86,13.35,16.86Z"/>
      </g>
      <g>
        <path class="cls-2" d="m253.29,88.22c-.84-7.71,4.77-14.72,12.49-15.56l12.98-1.42-24.04,29.96-1.42-12.98Z"/>
        <path class="cls-2" d="m278.76,71.23l.15-.02,1.44,13.13c.84,7.71-4.77,14.72-12.49,15.56l-13.13,1.44-.02-.15,24.04-29.96Z"/>
        <path class="cls-2" d="m276.16,82.72c.5,4.32-2.62,8.26-6.94,8.75l-7.26.84,13.36-16.86.84,7.26Z"/>
        <path class="cls-2" d="m261.96,92.32h-.08s-.85-7.33-.85-7.33c-.5-4.32,2.62-8.26,6.94-8.75l7.34-.85v.08s-13.35,16.86-13.35,16.86Z"/>
      </g>
    </g>
  </g>
</svg>